<?xml version="1.0" standalone="no"?>
<!DOCTYPE svg PUBLIC "-//W3C//DTD SVG 20010904//EN"
 "http://www.w3.org/TR/2001/REC-SVG-20010904/DTD/svg10.dtd">
<svg version="1.0" xmlns="http://www.w3.org/2000/svg"
 width="2048.000000pt" height="2048.000000pt" viewBox="0 0 2048.000000 2048.000000"
 preserveAspectRatio="xMidYMid meet">

<g transform="translate(0.000000,2048.000000) scale(0.100000,-0.100000)"
fill="#000000" stroke="none">
<path d="M0 10240 l0 -10240 10240 0 10240 0 0 10240 0 10240 -10240 0 -10240
0 0 -10240z m11120 2070 c0 -490 2 -890 4 -890 3 0 410 200 1084 533 167 82
304 148 306 146 13 -14 65 -129 59 -129 -5 0 -3 -4 3 -8 17 -11 86 -152 74
-152 -5 0 -10 -5 -10 -10 0 -6 5 -9 11 -8 7 2 20 -11 30 -28 16 -26 16 -31 4
-31 -8 0 -15 8 -15 18 0 10 -4 20 -9 24 -6 3 -6 -7 0 -27 5 -18 9 -34 9 -35 0
-1 8 0 19 2 15 3 41 -42 150 -266 73 -148 129 -274 125 -281 -4 -6 -3 -8 3 -5
8 5 213 -379 213 -401 0 -14 -338 -174 -351 -166 -7 4 -9 3 -6 -3 6 -10 -24
-30 -53 -35 -8 -2 -17 -6 -20 -9 -3 -3 -72 -41 -155 -84 -82 -43 -154 -82
-159 -86 -6 -5 387 -9 879 -9 813 0 890 -1 907 -17 25 -23 23 -68 -4 -87 -20
-14 -131 -16 -997 -16 -652 0 -972 -3 -965 -10 10 -10 602 -306 820 -410 l103
-50 -23 -52 c-13 -29 -82 -170 -152 -313 -71 -143 -152 -307 -180 -365 -62
-128 -305 -613 -310 -619 -2 -2 -74 31 -161 73 -87 43 -248 121 -358 174 -110
53 -348 170 -529 259 -182 89 -334 159 -338 157 -4 -3 -8 -402 -8 -886 l0
-881 -122 6 c-66 4 -449 7 -850 7 l-728 0 0 870 c0 479 -2 870 -4 870 -2 0
-69 -32 -150 -70 -81 -39 -152 -67 -158 -64 -7 5 -8 2 -3 -6 6 -10 4 -12 -9
-7 -9 4 -15 3 -12 -2 7 -11 -553 -283 -566 -275 -6 4 -8 3 -5 -3 7 -11 -492
-257 -502 -247 -3 3 -24 45 -47 92 -27 58 -37 89 -30 94 6 4 8 8 4 8 -20 0
-24 3 -34 23 -7 11 -9 28 -6 36 3 9 1 12 -6 7 -8 -5 -100 171 -277 530 -146
295 -265 540 -265 543 0 14 556 282 571 276 10 -4 20 -2 24 4 4 7 -1 9 -12 5
-10 -3 7 8 37 24 30 17 58 28 63 25 4 -2 7 1 7 6 0 6 63 42 139 81 77 38 142
74 146 80 4 7 -366 10 -1178 10 -1059 0 -1186 2 -1197 16 -17 19 -17 71 -1 87
9 9 251 12 1052 14 573 1 1043 4 1046 7 3 3 -51 33 -120 67 -69 35 -123 67
-120 73 3 5 1 6 -5 2 -11 -7 -194 81 -200 96 -2 5 -8 6 -13 2 -5 -3 -8 0 -7 7
2 6 -3 14 -11 17 -9 3 -11 0 -7 -7 4 -6 -17 -1 -46 12 -97 44 -148 71 -148 79
0 4 86 182 191 395 106 214 252 512 326 663 74 151 137 277 139 279 6 6 247
-110 1112 -535 149 -74 274 -134 277 -134 3 0 5 408 5 908 l0 907 850 -3 850
-2 0 -890z m4690 -1629 c59 -22 133 -78 124 -93 -4 -6 -2 -8 4 -5 13 9 55 -41
90 -107 25 -46 27 -61 27 -161 0 -100 -3 -115 -28 -166 -36 -75 -116 -152
-196 -192 -61 -30 -74 -32 -166 -32 -88 0 -107 3 -158 27 -80 38 -160 117
-200 197 -30 61 -32 73 -32 166 0 93 2 105 33 167 53 107 162 194 273 218 61
13 169 4 229 -19z"/>
<path d="M9542 12135 c2 -520 2 -945 0 -945 -1 0 -150 72 -330 161 -180 88
-407 199 -504 247 -97 47 -174 90 -171 96 3 5 1 6 -6 2 -6 -4 -106 39 -228 98
-118 58 -217 106 -220 106 -2 0 -26 -48 -54 -107 -62 -130 -391 -802 -454
-928 l-46 -89 68 -34 c37 -19 70 -38 71 -43 2 -5 7 -7 12 -4 5 3 14 0 22 -7 7
-7 18 -14 23 -15 29 -5 214 -101 207 -108 -4 -5 -2 -5 5 -1 12 7 335 -149 341
-165 2 -5 7 -7 11 -4 5 2 25 -5 47 -15 32 -17 57 -20 164 -19 69 1 154 4 189
8 l64 6 132 284 c72 156 140 290 150 297 55 40 75 8 148 -231 166 -546 335
-1083 344 -1098 6 -10 24 57 171 663 50 206 109 449 132 540 80 331 132 525
142 538 6 6 26 12 44 12 43 0 46 -6 78 -175 43 -222 58 -326 52 -353 -5 -20
-4 -23 4 -12 6 9 10 10 10 3 0 -6 25 -148 56 -315 30 -167 66 -364 79 -438 45
-254 77 -435 116 -654 68 -376 80 -449 75 -463 -3 -7 -2 -13 3 -13 5 0 11 -23
15 -50 9 -66 22 -56 30 22 4 35 30 221 57 413 27 193 58 418 70 500 11 83 47
337 79 565 32 228 71 505 87 615 29 208 38 235 83 235 35 0 55 -33 108 -181
29 -79 71 -193 93 -254 170 -463 281 -772 286 -796 7 -38 18 -37 33 4 8 17 60
137 117 265 57 129 103 238 103 243 0 18 41 49 64 49 29 0 53 -30 117 -142
l43 -78 110 -1 c61 -1 119 0 129 1 10 1 109 47 219 102 162 82 202 98 210 87
8 -11 9 -10 4 3 -5 18 25 35 53 29 7 -1 11 2 8 6 -3 5 86 56 199 113 112 58
204 108 204 112 0 3 -99 205 -220 449 -121 243 -217 445 -214 450 3 5 1 9 -5
9 -5 0 -33 47 -62 104 l-52 105 -46 -23 c-25 -13 -181 -90 -346 -171 -165 -81
-451 -221 -635 -312 -184 -91 -353 -173 -375 -184 l-40 -19 -7 22 c-3 13 -6
429 -7 926 l-1 902 -730 0 -731 0 3 -945z"/>
<path d="M12585 11879 c-4 -6 -5 -12 -2 -15 2 -3 7 2 10 11 7 17 1 20 -8 4z"/>
<path d="M9996 11020 c-53 -206 -247 -1008 -368 -1520 -18 -74 -39 -143 -47
-152 -19 -23 -63 -23 -84 0 -10 10 -26 50 -38 88 -11 38 -49 161 -84 274 -206
660 -257 825 -282 912 -15 54 -33 98 -39 98 -5 0 -18 -18 -28 -40 -30 -68
-185 -394 -196 -412 -9 -16 -26 -18 -125 -18 -86 0 -115 -3 -115 -13 0 -7
-123 -74 -272 -148 -150 -75 -373 -186 -496 -248 -122 -62 -227 -109 -234
-105 -6 4 -8 3 -5 -3 3 -5 -10 -17 -29 -28 -19 -10 -34 -22 -34 -27 0 -4 104
-218 231 -475 127 -258 232 -472 233 -478 1 -5 10 -22 20 -37 10 -15 15 -32
11 -38 -3 -5 -2 -10 4 -10 11 0 26 -39 22 -59 -1 -7 2 -10 7 -7 6 3 12 1 14
-5 2 -6 86 30 198 86 106 52 200 93 207 91 8 -3 12 -2 9 3 -6 10 1033 521
1059 521 3 0 5 -407 5 -905 l0 -905 730 0 730 0 2 919 3 919 566 -277 c655
-320 868 -421 883 -421 7 0 58 96 116 213 57 116 180 367 274 556 164 330 170
344 151 357 -11 8 -164 85 -340 171 -176 87 -406 201 -512 255 -185 94 -195
98 -258 98 -76 0 -85 7 -130 92 -16 32 -32 58 -35 58 -4 0 -12 -17 -19 -37 -8
-21 -27 -65 -42 -98 -15 -33 -64 -143 -109 -245 -45 -102 -88 -195 -96 -207
-18 -28 -64 -31 -87 -5 -17 19 -20 26 -97 242 -26 74 -88 245 -137 380 -50
135 -111 307 -138 383 -41 120 -65 165 -65 125 0 -7 -12 -89 -26 -183 -14 -93
-36 -253 -49 -355 -13 -102 -40 -295 -59 -430 -19 -135 -56 -391 -81 -570
-124 -880 -133 -934 -152 -948 -28 -20 -76 -11 -89 18 -11 23 -71 344 -150
805 -19 110 -54 306 -79 435 -25 129 -51 276 -59 325 -8 50 -30 176 -50 280
-19 105 -53 300 -76 435 -22 135 -44 256 -49 270 l-9 25 -6 -25z"/>
<path d="M11080 10821 c0 -6 4 -13 10 -16 6 -3 7 1 4 9 -7 18 -14 21 -14 7z"/>
<path d="M7670 10676 c0 -2 7 -7 16 -10 8 -3 12 -2 9 4 -6 10 -25 14 -25 6z"/>
<path d="M7610 10641 c0 -5 7 -11 14 -14 10 -4 13 -1 9 9 -6 15 -23 19 -23 5z"/>
<path d="M7761 10614 c0 -11 3 -14 6 -6 3 7 2 16 -1 19 -3 4 -6 -2 -5 -13z"/>
<path d="M7944 8742 c0 -10 6 -19 13 -19 8 0 9 6 2 19 -5 10 -11 18 -12 18 -2
0 -3 -8 -3 -18z"/>
<path d="M7964 8695 c8 -8 21 -15 28 -15 8 1 6 6 -6 15 -26 20 -42 19 -22 0z"/>
<path d="M7945 8670 c3 -5 8 -10 11 -10 2 0 4 5 4 10 0 6 -5 10 -11 10 -5 0
-7 -4 -4 -10z"/>
<path d="M15560 10563 c-102 -36 -178 -159 -167 -269 24 -228 281 -333 451
-183 69 61 90 108 91 199 0 66 -4 82 -32 131 -18 31 -31 58 -30 60 1 2 0 3 -2
2 -2 -1 -18 8 -35 21 -74 57 -182 72 -276 39z"/>
</g>
</svg>
